<svg class="dn" height="0" version="1.1" width="0"
  xmlns="http://www.w3.org/2000/svg">
  <defs>
    <g id="hpa-search">
      <path fill-rule="evenodd" d="M16.801 15.842l-3.653-3.653c1.032-1.252 1.592-2.808 1.592-4.446 0-1.872-.726-3.628-2.05-4.951C11.369 1.467 9.61.741 7.742.741c-1.867 0-3.627.726-4.95 2.051C1.468 4.112.741 5.871.741 7.743c0 1.867.727 3.626 2.051 4.95 1.32 1.321 3.078 2.051 4.95 2.051 1.643 0 3.199-.561 4.446-1.594l3.654 3.651c.265.265.693.265.959 0 .265-.266.265-.694 0-.959zM3.75 11.731c-1.068-1.066-1.655-2.483-1.655-3.988 0-1.507.587-2.928 1.652-3.993s2.482-1.652 3.992-1.652c1.506 0 2.927.587 3.992 1.652s1.652 2.482 1.652 3.993c0 1.505-.587 2.926-1.652 3.991s-2.486 1.652-3.992 1.652c-1.507 0-2.923-.587-3.989-1.655zm0 0z"/>
    </g>
    <g id="sti-close--mobile">
      <path d="M13 8.51172H3" stroke="currentColor" stroke-width="1.5" stroke-linecap="round" stroke-linejoin="round" />
      <path d="M8 13.5257L3 8.51287L8 3.5" stroke="currentColor" stroke-width="1.5" stroke-linecap="round" stroke-linejoin="round" />
    </g>
  </defs>
</svg>