<svg width="156" height="102" viewBox="0 0 156 102" fill="none" xmlns="http://www.w3.org/2000/svg">
<path d="M155.436 23.2362C155.331 23.1525 155.206 23.1315 155.102 23.1734C155.018 23.1943 154.976 23.2781 154.851 23.5921C154.349 24.7434 152.907 28.0509 148.414 28.3858C148.539 27.2763 148.707 26.0622 148.644 25.0574C148.498 22.2523 146.575 20.2846 144.004 19.9078C139.929 19.3426 134.057 22.7547 132.134 30.4163C130.128 34.1006 128.352 36.0893 126.826 36.3824C126.074 36.5289 125.593 36.3405 125.363 35.859C125.133 35.3776 125.029 34.7705 125.071 34.0588C125.112 33.347 125.3 32.5097 125.614 31.5677C125.927 30.6257 126.262 29.7674 126.575 28.9719C126.889 28.1974 127.307 27.1926 127.829 25.9994C128.352 24.8062 128.728 23.9061 128.979 23.299C129.355 22.3989 129.397 21.6871 129.104 21.101C128.832 20.5567 128.414 20.159 127.829 19.9287C127.244 19.6984 126.596 19.6356 125.886 19.7612C125.384 19.845 124.297 20.2427 122.667 20.8916C121.037 21.5615 118.676 21.9802 118.132 22.1477C118.174 21.4568 118.049 20.8288 117.777 20.2846C117.255 19.2379 116.335 18.8192 114.998 19.0704C113.702 19.3007 112.782 19.8659 112.218 20.766C111.654 21.6662 111.612 22.5454 112.051 23.4665C112.344 24.0317 112.803 24.4503 113.451 24.6806C114.099 24.9109 114.433 25.0365 114.83 24.9527C114.893 25.7482 111.508 36.1521 109.919 37.5965C109.355 38.4338 111.299 38.7478 111.967 37.9314C113.493 37.2825 118.028 24.7225 118.132 24.1573C118.968 23.9479 121.204 23.4665 123.399 22.6291C123.19 23.5921 122.605 25.183 121.601 27.4019C120.619 29.6209 119.867 31.6514 119.386 33.4726C118.885 35.3148 118.885 36.7382 119.407 37.764C119.909 38.7897 120.724 39.5224 121.831 39.962C122.939 40.4016 124.13 40.5062 125.384 40.276C127.955 39.7945 130.065 38.4757 131.716 36.2777C131.863 36.0684 132.009 35.859 132.155 35.6497C133.158 38.5804 135.896 40.4225 139.449 40.0876C143.398 39.7108 146.303 35.6078 147.683 31.4421C149.375 31.777 150.734 31.5258 151.423 31.3165C155.624 30.1233 155.979 26.3971 156 25.2877C156 24.4713 155.833 23.5083 155.436 23.2362ZM139.344 35.3357C136.586 34.5193 137.986 29.1813 140.305 25.497C140.389 25.7063 140.494 25.9157 140.619 26.125C141.727 28.1137 143.566 29.5162 143.775 29.6837C144.172 29.9767 144.59 30.2489 144.966 30.4582C143.67 33.4098 141.622 36.0056 139.344 35.3357ZM145.844 27.8834C144.422 27.1717 142.918 25.8738 142.186 24.5759C142.019 24.2619 141.852 23.8851 141.81 23.5293C142.625 22.6291 143.482 22.043 144.255 21.9592C145.885 21.7918 146.408 25.0993 145.844 27.8834Z" fill="#808080"/>
<path d="M108.164 44.7557C107.62 44.4208 106.847 44.044 105.886 43.6881C108.749 35.2101 110.065 25.5598 109.104 21.8546C108.791 20.6405 106.889 19.845 105.28 19.9706C105.259 20.4311 105.259 20.8707 105.112 21.415C104.527 20.4311 103.399 19.5728 101.79 19.4682C98.634 19.2379 93.8274 21.6871 91.2151 27.6113C89.2924 30.3326 85.9905 34.8542 85.1546 34.9798C84.2977 35.1473 84.6321 31.9654 85.6561 28.2602C85.886 27.4019 86.5757 24.1991 86.7846 23.3409C87.2026 21.2475 84.9665 19.8868 82.8349 19.7612C82.7304 19.9287 82.4796 20.6195 82.1661 21.6243C81.5601 20.5777 80.2853 19.6566 78.6761 19.4891C75.2488 19.0914 69.7734 21.8337 67.0775 28.7207C65.0295 31.5468 61.9574 35.0636 61.1842 35.1892C60.3065 35.3566 60.8289 32.3422 61.226 30.5419C61.4768 29.6418 62.1873 26.3553 62.3754 25.497C62.7934 23.3618 60.5154 21.9383 58.3211 21.8337C58.133 22.1477 57.5061 23.9479 56.8582 26.2925C55.7297 28.8254 51.4038 35.3985 50.2962 35.5032C49.3557 35.6078 49.6901 32.3841 50.8813 28.6789C52.6786 23.0478 52.2397 20.0752 49.0841 19.0914C46.0747 18.1494 42.0204 19.2379 39.7216 22.1686C39.9515 20.2008 37.8408 19.7194 35.5001 19.4682C35.2703 19.7822 34.9777 22.1267 34.0164 24.9318C32.9505 28.0718 31.216 34.2472 31.216 34.2472C30.7562 37.1988 33.0759 40.6318 37.7363 40.904C36.5033 39.5433 36.3988 37.7012 36.7749 35.6497C37.5482 32.719 39.2409 27.6531 39.7425 26.7949C41.7696 23.2362 45.3851 20.8289 46.5136 20.9754C49.4393 21.4569 39.638 38.7269 45.8239 40.1294C49.7946 41.0296 53.3473 36.5917 55.5207 32.4678C54.9565 36.2358 55.061 39.627 57.0045 39.9829C60.1602 40.569 63.5248 37.5128 65.9699 34.1006C66.1371 38.0989 68.6867 41.1552 72.4902 40.1294C75.3324 39.3758 77.882 35.3357 79.7628 31.6723C79.1568 35.7125 79.1986 39.313 81.0794 39.648C84.1933 40.2341 87.3698 37.1778 89.6477 33.7866C89.585 38.057 92.1137 41.1761 96.3979 40.4434C99.658 39.8573 102.521 34.624 104.214 30.4791C103.608 34.3309 102.751 38.392 101.706 41.6157C101.622 41.9088 101.518 42.1809 101.434 42.474C100.64 42.3275 99.8252 42.2018 98.9684 42.139C89.2716 41.2808 77.1087 44.358 77.8402 53.0453C78.1954 57.1483 82.2706 59.8696 86.8264 60.5186C94.3707 61.5862 101.33 54.5526 104.632 47.4561C105.447 47.9585 106.826 49.3192 106.617 50.5333C106.408 51.8103 109.355 49.4029 109.919 48.3563C110.442 47.3515 110.086 45.9908 108.164 44.7557ZM79.9927 25.7901C78.2999 30.0395 74.3919 36.194 72.323 35.2101C68.7285 33.4936 74.1412 21.5615 77.7775 21.2475C80.9958 20.9754 80.536 24.4503 79.9927 25.7901ZM103.441 25.6435C101.915 29.9558 98.2578 36.2777 96.1889 35.3566C92.5526 33.7238 97.5055 21.5615 101.1 21.1429C104.256 20.7661 103.921 24.2829 103.441 25.6435ZM86.722 57.9019C84.5903 57.567 83.42 55.9342 83.3155 54.5526C82.8767 49.4657 90.3583 44.5883 97.2547 44.9651C97.9235 45.0069 99.5535 45.1744 100.285 45.3209C97.0666 51.3288 91.2151 58.5927 86.722 57.9019Z" fill="#808080"/>
<path d="M61.9157 20.7658C63.0651 21.1008 64.9251 19.5726 65.4266 17.1234C65.552 16.4745 65.5102 15.4069 64.5071 15.0301C63.4204 14.6114 61.8112 14.6952 61.247 15.1557C60.5991 15.7 60.0348 16.935 59.9095 18.0236C59.8468 18.4841 59.7632 20.1169 61.9157 20.7658Z" fill="#808080"/>
<path d="M31.9266 14.0044C31.7594 11.5552 28.8336 9.48283 27.2036 9.5875C26.911 9.60843 26.6602 9.9643 26.5139 10.6132C22.2298 25.2038 13.2017 42.5576 8.56226 42.8507C7.998 42.8925 7.41285 42.4111 7.32926 41.2597C7.05758 37.4917 8.70855 32.5724 10.2968 27.7996C11.906 22.9639 13.5779 17.9609 13.3062 14.0882C13.0972 11.1366 11.6343 9.29443 9.08471 8.68736C9.00112 8.66643 8.93843 8.66643 8.85483 8.6455C8.41597 8.56176 7.93531 8.49896 7.43375 8.47803C7.35015 8.47803 7.28746 8.47803 7.20387 8.47803C7.01578 8.47803 6.84859 8.47803 6.66051 8.49896C6.63961 8.49896 6.61871 8.49896 6.59781 8.49896C6.53512 8.49896 6.47242 8.49896 6.40973 8.49896C6.38883 8.49896 6.34703 8.49896 6.32614 8.49896C6.32614 8.49896 6.32614 8.49896 6.32614 8.51989C5.59469 8.58269 4.84235 8.75016 4.13181 9.04323C0.244721 10.5086 -0.235941 15.3023 0.411907 17.0189C0.599992 17.5003 0.829874 17.4166 0.892569 17.3747C0.99706 17.3329 1.12245 17.1863 1.28964 16.9979C1.7285 16.4746 2.48084 15.6163 4.57068 14.7999C4.90505 14.6743 5.26032 14.5696 5.61559 14.4859C5.61559 14.4859 6.61871 14.1719 6.63961 15.0511C6.63961 15.1139 6.63961 15.1767 6.63961 15.2395C6.63961 15.407 6.57692 16.0978 6.55602 16.2862C6.13805 19.6146 4.65427 24.0106 3.19139 28.281C1.45682 33.3678 -0.173246 38.1616 0.0148391 40.9667C0.328314 45.3627 4.09001 47.4979 7.47554 47.2886C13.4107 46.9327 19.722 34.6238 19.7847 34.4982L20.5579 32.991L20.1817 34.6238C20.1817 34.6448 19.9101 34.4982 20.2026 38.6849C20.4534 42.2436 25.2182 45.572 27.2872 45.4464C27.8932 45.4045 28.1858 45.1533 28.144 44.6509C28.1231 44.4835 28.0395 44.316 27.8932 44.0648C27.5588 43.4577 26.9737 42.432 26.8274 40.1712C26.4303 34.3936 28.5829 27.8624 30.3174 21.3939C31.2369 17.8353 31.9893 14.9883 31.9266 14.0044Z" fill="#808080"/>
<path d="M42.8566 5.54735C42.7521 5.40082 42.6685 5.25428 42.5849 5.14962C42.5013 5.02402 42.3759 4.91935 42.1879 4.79375C41.9998 4.68908 41.8744 4.58441 41.7699 4.52161C41.6863 4.45881 41.4982 4.37508 41.2683 4.27041C41.0176 4.16575 40.8504 4.10295 40.7877 4.08201C40.7041 4.04015 40.516 3.97735 40.2443 3.89361C39.9517 3.80988 39.7846 3.74708 39.7428 3.72615C39.3875 3.60054 39.0949 3.49588 38.9068 3.41214C38.7187 3.32841 38.5515 3.20281 38.3844 3.01441C38.2172 2.84694 38.1336 2.63761 38.1336 2.40734C38.1336 2.07241 38.2799 1.80027 38.5933 1.59094C38.9068 1.3816 39.283 1.27694 39.7637 1.27694C40.6414 1.27694 41.3728 1.61187 41.9789 2.32361H42.0834L42.9193 1.48627V1.36067C42.5849 0.962937 42.1461 0.628002 41.6027 0.376801C41.0594 0.1256 40.4324 0 39.7428 0C38.8023 0 38.0291 0.230267 37.4439 0.690802C36.8588 1.15134 36.5662 1.73747 36.5662 2.47014C36.5662 2.82601 36.6289 3.16094 36.7752 3.45401C36.9215 3.74708 37.1305 3.97735 37.4021 4.18668C37.6738 4.37508 37.9246 4.54255 38.1545 4.64721C38.3844 4.75188 38.6769 4.87748 39.0113 4.98215C39.1785 5.04495 39.3875 5.10775 39.6592 5.19148C39.9308 5.27522 40.1189 5.33802 40.2652 5.37988C40.4115 5.42175 40.5787 5.48455 40.7668 5.56828C40.9549 5.65202 41.1011 5.73575 41.1847 5.81949C41.2683 5.90322 41.3519 6.00789 41.4355 6.15442C41.4982 6.30095 41.54 6.44749 41.54 6.61495C41.54 6.97082 41.3728 7.26389 41.0385 7.49416C40.7041 7.72443 40.2652 7.82909 39.701 7.82909C39.2412 7.82909 38.7605 7.70349 38.2799 7.45229C37.7992 7.20109 37.4021 6.88709 37.0678 6.46842H36.9424L36.1064 7.30576V7.43136C36.5035 7.95469 37.026 8.37336 37.6947 8.66643C38.3426 8.9595 39.0531 9.12696 39.8055 9.12696C40.7668 9.12696 41.5609 8.8967 42.1879 8.43616C42.8148 7.97563 43.1283 7.34762 43.1283 6.57309C43.1283 6.34282 43.1074 6.15442 43.0656 5.96602C43.0238 5.86135 42.9402 5.69388 42.8566 5.54735Z" fill="#808080"/>
<path d="M47.2452 5.21231H50.986V3.97724H47.2452V1.48617H51.9891V0.209229H45.6987V9.04312H52.01V7.76619H47.2452V5.21231Z" fill="#808080"/>
<path d="M56.1895 0.209229H54.6431V9.04312H60.3901V7.76619H56.1895V0.209229Z" fill="#808080"/>
<path d="M64.1519 5.21231H67.8927V3.97724H64.1519V1.48617H68.8959V0.209229H62.6055V9.04312H68.9168V7.76619H64.1519V5.21231Z" fill="#808080"/>
<path d="M77.6105 0.502283C76.9627 0.188282 76.2521 0.041748 75.4789 0.041748C74.1205 0.041748 72.992 0.481349 72.0516 1.36055C71.132 2.23975 70.6514 3.32829 70.6514 4.62616C70.6514 5.92403 71.1111 7.01257 72.0307 7.89177C72.9502 8.77097 74.0787 9.21058 75.4371 9.21058C76.2103 9.21058 76.9418 9.06404 77.5896 8.75004C78.2375 8.43604 78.7808 8.01737 79.2197 7.4731V7.3475L78.2375 6.5939H78.133C77.4642 7.43124 76.5656 7.87084 75.458 7.87084C74.5385 7.87084 73.7652 7.55684 73.1383 6.94977C72.5113 6.3427 72.1978 5.56816 72.1978 4.6471C72.1978 3.70509 72.5113 2.95149 73.1383 2.34442C73.7652 1.73735 74.5385 1.44429 75.458 1.44429C76.5656 1.44429 77.4642 1.86295 78.133 2.70029H78.2375L79.2197 1.94669V1.82109C78.8226 1.23495 78.2584 0.816284 77.6105 0.502283Z" fill="#808080"/>
<path d="M83.1905 0.209229H81.644V9.04312H83.1905V0.209229Z" fill="#808080"/>
<path d="M90.6719 0.041748C89.2927 0.041748 88.1224 0.481349 87.1819 1.36055C86.2415 2.23975 85.7817 3.32829 85.7817 4.62616C85.7817 5.92403 86.2415 7.01257 87.1819 7.89177C88.1224 8.77097 89.2718 9.21058 90.6719 9.21058C92.0512 9.21058 93.2215 8.77097 94.1411 7.89177C95.0815 7.01257 95.5413 5.92403 95.5413 4.62616C95.5413 3.32829 95.0815 2.23975 94.1411 1.36055C93.2215 0.481349 92.0721 0.041748 90.6719 0.041748ZM93.0335 6.92884C92.4065 7.5359 91.6124 7.84991 90.6719 7.84991C89.7315 7.84991 88.9374 7.5359 88.3104 6.92884C87.6835 6.32177 87.37 5.54723 87.37 4.62616C87.37 3.68416 87.6835 2.93056 88.3104 2.32349C88.9374 1.71642 89.7315 1.42335 90.6719 1.42335C91.6124 1.42335 92.4065 1.71642 93.0335 2.32349C93.6604 2.93056 93.9739 3.70509 93.9739 4.62616C93.9948 5.54723 93.6604 6.32177 93.0335 6.92884Z" fill="#808080"/>
<path d="M104.319 6.40551L99.0106 0.209229H98.1538V9.04312H99.6794V2.93057L104.967 9.12686H105.824V0.209229H104.319V6.40551Z" fill="#808080"/>
<path d="M112.218 0.209229L107.997 8.91752L108.08 9.04312H109.585L110.421 7.24285H114.851L115.666 9.04312H117.213L117.275 8.91752L113.054 0.209229H112.218ZM110.901 6.11245L112.615 2.36537L114.308 6.11245H110.901Z" fill="#808080"/>
<path d="M123.127 0.209229H119.428V9.04312H123.127C124.569 9.04312 125.719 8.64539 126.575 7.82899C127.432 7.01258 127.871 5.94498 127.871 4.62618C127.871 3.30737 127.432 2.23977 126.575 1.4443C125.698 0.606963 124.548 0.209229 123.127 0.209229ZM125.426 6.90792C124.841 7.47312 124.068 7.76619 123.106 7.76619H120.975V1.48617H123.085C124.047 1.48617 124.82 1.77923 125.405 2.34443C125.99 2.90964 126.283 3.68417 126.283 4.62618C126.283 5.56818 125.99 6.32178 125.426 6.90792Z" fill="#808080"/>
<path d="M134.747 0.041748C133.367 0.041748 132.197 0.481349 131.257 1.36055C130.316 2.23975 129.856 3.32829 129.856 4.62616C129.856 5.92403 130.316 7.01257 131.257 7.89177C132.197 8.77097 133.346 9.21058 134.747 9.21058C136.126 9.21058 137.296 8.77097 138.216 7.89177C139.156 7.01257 139.616 5.92403 139.616 4.62616C139.616 3.32829 139.156 2.23975 138.216 1.36055C137.296 0.481349 136.126 0.041748 134.747 0.041748ZM137.108 6.92884C136.481 7.5359 135.687 7.84991 134.747 7.84991C133.806 7.84991 133.012 7.5359 132.385 6.92884C131.758 6.32177 131.445 5.54723 131.445 4.62616C131.445 3.68416 131.758 2.93056 132.385 2.32349C133.012 1.71642 133.806 1.42335 134.747 1.42335C135.687 1.42335 136.481 1.71642 137.108 2.32349C137.735 2.93056 138.049 3.70509 138.049 4.62616C138.049 5.54723 137.735 6.32177 137.108 6.92884Z" fill="#808080"/>
<path d="M148.372 6.04975C148.33 5.86135 148.268 5.69388 148.163 5.54735C148.059 5.40082 147.975 5.25428 147.892 5.14962C147.808 5.02402 147.683 4.91935 147.494 4.79375C147.306 4.68908 147.181 4.58441 147.077 4.52161C146.993 4.45881 146.805 4.37508 146.575 4.27041C146.324 4.16575 146.157 4.10295 146.094 4.08201C146.011 4.04015 145.823 3.97735 145.551 3.89361C145.258 3.80988 145.091 3.74708 145.049 3.72615C144.694 3.60054 144.402 3.49588 144.213 3.41214C144.025 3.32841 143.858 3.20281 143.691 3.01441C143.524 2.84694 143.44 2.63761 143.44 2.40734C143.44 2.07241 143.587 1.80027 143.9 1.59094C144.213 1.3816 144.59 1.27694 145.07 1.27694C145.948 1.27694 146.679 1.61187 147.286 2.32361H147.39L148.226 1.48627V1.36067C147.892 0.962937 147.453 0.628002 146.909 0.376801C146.366 0.1256 145.739 0 145.049 0C144.109 0 143.336 0.230267 142.751 0.690802C142.165 1.15134 141.873 1.73747 141.873 2.47014C141.873 2.82601 141.936 3.16094 142.082 3.45401C142.228 3.74708 142.437 3.97735 142.709 4.18668C142.98 4.37508 143.231 4.54255 143.461 4.64721C143.691 4.75188 143.984 4.87748 144.318 4.98215C144.485 5.04495 144.694 5.10775 144.966 5.19148C145.237 5.27522 145.426 5.33802 145.572 5.37988C145.718 5.42175 145.885 5.48455 146.073 5.56828C146.261 5.65202 146.408 5.73575 146.491 5.81949C146.575 5.90322 146.659 6.00789 146.742 6.15442C146.805 6.30095 146.847 6.44749 146.847 6.61495C146.847 6.97082 146.679 7.26389 146.345 7.49416C146.011 7.72443 145.572 7.82909 145.008 7.82909C144.548 7.82909 144.067 7.70349 143.587 7.45229C143.106 7.20109 142.709 6.88709 142.374 6.46842H142.249L141.413 7.30576V7.43136C141.81 7.95469 142.333 8.37336 143.001 8.66643C143.649 8.9595 144.36 9.12696 145.112 9.12696C146.073 9.12696 146.868 8.8967 147.494 8.43616C148.121 7.97563 148.435 7.34762 148.435 6.57309C148.414 6.42655 148.393 6.21722 148.372 6.04975Z" fill="#808080"/>
<path d="M54.4131 71.2573C54.7057 71.6132 54.8102 72.0319 54.7266 72.5552C54.6848 72.7017 54.643 72.8692 54.6012 73.0367C54.5594 73.2041 54.4967 73.3716 54.4549 73.5391C54.4131 73.6228 54.3922 73.6647 54.3922 73.6856C54.3086 73.9159 54.1833 74.0833 53.9534 74.1671C53.7444 74.2717 53.5354 74.2927 53.3264 74.2089C53.0965 74.1252 52.9293 73.9577 52.8458 73.7693C52.7413 73.56 52.7204 73.3507 52.804 73.1204L52.8667 73.0157L53.0547 72.4087C52.9711 72.3877 52.8249 72.3668 52.6159 72.3459C52.4278 72.3249 52.1352 72.3459 51.7799 72.3668C51.362 72.4087 50.8813 72.4505 50.3171 72.5343C49.7528 72.618 49.0841 72.7227 48.3108 72.8692C48.2899 72.8901 48.2899 72.9111 48.2899 72.9111C48.2899 72.9111 48.2899 72.932 48.269 72.9529C48.2481 72.9529 48.0391 73.2251 47.6421 73.7903C47.245 74.3555 46.7016 75.13 46.0538 76.1557C45.3851 77.1605 44.6118 78.3747 43.7341 79.7982C42.8564 81.2216 41.9368 82.8126 40.9546 84.571C40.0142 86.2247 39.4499 87.69 39.22 88.946C39.0529 89.8462 39.0529 90.5788 39.2409 91.1231C39.3036 91.3115 39.3663 91.4581 39.429 91.5627C39.5126 91.6674 39.5753 91.7721 39.6589 91.8349L39.7425 91.9186C39.7634 91.9395 39.7843 91.9395 39.8052 91.9395C40.0142 92.0233 40.1605 92.1907 40.2441 92.4001C40.3277 92.6094 40.3277 92.8187 40.2232 93.0281C40.0769 93.363 39.8261 93.5305 39.4708 93.5305C39.3872 93.5305 39.2827 93.5095 39.1365 93.4677C39.0947 93.4467 39.032 93.4049 38.9066 93.3421C38.8021 93.2793 38.6558 93.1746 38.5095 93.0281C38.3632 92.8815 38.196 92.6931 38.0497 92.4629C37.8826 92.2326 37.7572 91.9395 37.6527 91.6046C37.0048 89.7206 37.6109 87.083 39.4708 83.6918C40.8083 81.2426 42.0622 79.1283 43.2116 77.3489C44.361 75.5696 45.2806 74.188 45.9284 73.246C45.7821 73.2879 45.6149 73.3088 45.4686 73.3507C45.3015 73.3716 45.1552 73.4135 44.988 73.4553C42.3339 73.9996 40.2859 74.6485 38.8648 75.3812C38.2169 75.6952 37.7363 76.0092 37.4228 76.3023C37.1093 76.5953 36.9003 76.8256 36.7958 77.014C36.7122 77.1396 36.6496 77.2443 36.6287 77.328C36.6078 77.4117 36.5869 77.4745 36.566 77.5373V77.6001C36.6078 77.8723 36.5451 78.1235 36.3988 78.2909C36.2525 78.4794 36.0644 78.6049 35.8554 78.6468C35.6464 78.6887 35.4374 78.6677 35.2494 78.5631C35.0613 78.4584 34.9568 78.27 34.915 77.9979C34.915 77.956 34.915 77.8932 34.8941 77.7885C34.8732 77.6839 34.8732 77.5583 34.8941 77.3908C34.915 77.2233 34.9568 77.0349 35.0404 76.8256C35.124 76.6163 35.2285 76.386 35.3748 76.1348C35.8763 75.3393 36.7749 74.5857 38.0915 73.8949C39.7425 73.0785 41.9368 72.3877 44.6954 71.8225C45.1761 71.7388 45.6358 71.6551 46.0329 71.5713C46.4509 71.4876 46.827 71.4248 47.2032 71.3411C48.3317 71.1317 49.293 70.9852 50.0663 70.8596C50.8395 70.7549 51.4874 70.6921 52.0098 70.6712C52.4905 70.6293 52.9502 70.6503 53.3891 70.7131C53.8071 70.7759 54.1623 70.9643 54.4131 71.2573Z" fill="#808080"/>
<path d="M44.8001 89.7415C44.2777 89.6997 43.8597 89.5322 43.5671 89.2391C43.1283 88.7995 42.8984 88.1506 42.9193 87.2295C42.9402 86.3294 43.191 85.1153 43.6925 83.6081C43.9642 82.7707 44.3404 82.0799 44.8001 81.5566C45.2599 81.0332 45.6779 80.6146 46.0749 80.3424C46.5556 79.9866 47.0571 79.7354 47.5796 79.5679C48.1021 79.4004 48.5618 79.3376 49.0007 79.3795C49.4396 79.4423 49.7739 79.5888 50.0456 79.861C50.3173 80.1331 50.4636 80.4471 50.5054 80.8448C50.5681 81.4728 50.2128 82.1636 49.4396 82.8963C49.1679 83.1685 48.8753 83.4196 48.52 83.6708C48.1648 83.943 47.7886 84.2151 47.3497 84.5082C46.8273 84.885 46.3257 85.199 45.845 85.4921C45.3644 85.7642 45.0091 85.9945 44.7374 86.141C44.6747 86.4131 44.6329 86.7062 44.5911 86.9783C44.5493 87.2505 44.5285 87.4807 44.5702 87.6691C44.5911 87.8575 44.6956 87.9831 44.8419 88.0669C44.9882 88.1506 45.239 88.1087 45.5943 87.9831C46.054 87.8157 46.5974 87.5017 47.2243 87.0621C47.8304 86.6225 48.4364 86.141 49.0425 85.6386C49.6485 85.1362 50.1919 84.6338 50.7144 84.1523C51.2368 83.6709 51.6339 83.2731 51.9056 83.001C52.0519 82.8335 52.2399 82.7498 52.4698 82.7288C52.6997 82.7288 52.9087 82.7916 53.0759 82.9591C53.2431 83.1056 53.3267 83.2941 53.3267 83.5243C53.3267 83.7546 53.2431 83.9639 53.0968 84.1314C53.055 84.1733 52.8251 84.4035 52.3653 84.8641C51.9265 85.3037 51.3622 85.827 50.6935 86.4341C48.8544 88.0669 47.3497 89.0926 46.1794 89.5113C45.6988 89.6787 45.2599 89.7625 44.8837 89.7625H44.8001V89.7415ZM48.7081 81.0123C48.6245 81.0123 48.4991 81.0123 48.3737 81.0332C48.2484 81.0542 48.1021 81.096 47.9558 81.1379C47.5169 81.3054 47.078 81.5984 46.6183 82.0171C46.1585 82.4358 45.7615 83.001 45.4689 83.6918C45.5943 83.608 45.7197 83.5034 45.8659 83.4197C45.9913 83.3359 46.1376 83.2522 46.2839 83.1475C47.2243 82.5195 47.8513 82.0171 48.1857 81.6822C48.52 81.3263 48.729 81.117 48.7917 80.9914H48.7081V81.0123Z" fill="#808080"/>
<path d="M57.6735 101.339C57.3809 101.339 57.1092 101.234 56.9002 101.004C56.754 100.815 56.6704 100.585 56.6495 100.292C56.6286 99.9988 56.6913 99.5173 56.8167 98.8265C56.9002 98.3869 56.9838 97.9054 57.1301 97.3193C57.2555 96.7541 57.4018 96.1051 57.569 95.3934C57.8407 94.3677 58.1332 93.2373 58.4676 92.0022C58.802 90.7671 59.1573 89.4693 59.5334 88.1295C59.5125 88.1295 59.4916 88.1295 59.4707 88.1086C59.2618 88.0667 59.0946 87.983 58.9692 87.8155C58.8438 87.6481 58.7811 87.4806 58.7811 87.2713C58.802 87.0619 58.8856 86.8945 59.011 86.7479C59.1573 86.6014 59.3245 86.4967 59.5334 86.4758C59.5752 86.4758 59.617 86.4758 59.6797 86.4549C59.7215 86.4549 59.7633 86.4549 59.826 86.4339C59.8887 86.4339 59.9514 86.413 60.0559 86.392C60.1186 86.2246 60.1604 86.0571 60.2231 85.8687C60.2858 85.7012 60.3276 85.5128 60.3694 85.3454C60.453 85.0314 60.5784 84.6755 60.6828 84.2987C60.8082 83.9219 60.9127 83.566 60.9963 83.2102C61.4352 81.6402 61.874 80.1748 62.3338 78.8142C62.7936 77.4535 63.2324 76.1975 63.6295 75.088C63.8803 74.3135 64.1311 73.6436 64.3609 73.0365C64.5908 72.4295 64.8207 71.8852 65.0088 71.4247C65.3223 70.7129 65.5731 70.2105 65.7402 69.9384C65.9074 69.6663 66.0537 69.4569 66.1791 69.3523C66.4299 69.1011 66.7016 68.9964 66.9732 69.0383C67.2449 69.0592 67.4539 69.1639 67.6002 69.3523C67.8719 69.6244 68.0182 70.0431 67.9973 70.6083C67.9973 71.1525 67.8301 71.9061 67.5166 72.8691C67.3076 73.4762 67.0568 74.167 66.7434 74.9415C66.4299 75.716 66.0537 76.5952 65.6148 77.5582C65.2805 78.2908 64.9461 79.0026 64.6117 79.6934C64.2774 80.3842 63.9639 81.0331 63.6922 81.5983C63.4205 82.1635 63.1697 82.645 62.9608 83.0427C62.7518 83.4404 62.6264 83.6916 62.5637 83.7963C62.4801 84.0475 62.3965 84.2778 62.3338 84.508C62.2711 84.7383 62.2084 84.9895 62.1248 85.2407C62.083 85.3663 62.0412 85.4919 62.0203 85.5966C61.9785 85.7013 61.9367 85.8269 61.9158 85.9525C62.3547 85.8478 62.8354 85.7013 63.3578 85.5129C63.8803 85.3454 64.3818 85.1361 64.8625 84.9058C65.3641 84.6755 65.8238 84.4034 66.2836 84.0894C66.7225 83.7754 67.1195 83.4404 67.4539 83.0636C67.6002 82.8752 67.7883 82.7706 68.0182 82.7706C68.248 82.7706 68.457 82.8334 68.6451 82.9799C68.8123 83.1264 68.8959 83.3148 68.9168 83.5451C68.9168 83.7754 68.8541 83.9847 68.7078 84.1522C68.3107 84.5918 67.851 85.0104 67.3285 85.3663C66.8061 85.7222 66.2627 86.0571 65.6984 86.3293C65.1342 86.6014 64.5699 86.8526 64.0057 87.0619C63.4414 87.2713 62.8981 87.4387 62.3965 87.5643C62.8354 87.8574 63.1906 88.2133 63.4832 88.6319C63.9848 89.3227 64.1938 90.0763 64.1311 90.8927C64.0893 91.3742 63.9639 91.9185 63.7758 92.5046C63.5668 93.0907 63.3369 93.6769 63.0653 94.263C62.7936 94.8491 62.5219 95.3725 62.2711 95.833C61.9994 96.2935 61.8114 96.6494 61.686 96.8797C61.3725 97.424 61.059 97.9264 60.7455 98.3869C60.4321 98.8474 60.1395 99.2661 59.826 99.6429C59.3453 100.25 58.9692 100.648 58.6975 100.857C58.4467 101.066 58.2168 101.213 58.0497 101.255C57.8825 101.318 57.7362 101.339 57.6735 101.339ZM61.0799 88.7575C60.7664 89.8879 60.453 90.9974 60.1604 92.0441C59.8678 93.0907 59.5961 94.0955 59.3663 95.0375C59.1573 95.8539 58.9901 96.5657 58.8856 97.1309C58.7602 97.6961 58.6557 98.1776 58.5721 98.5544L58.593 98.5334C58.8647 98.1776 59.1364 97.7798 59.4289 97.3402C59.7215 96.9006 60.0141 96.4401 60.3067 95.9586C60.9336 94.891 61.4561 93.8862 61.8532 92.9651C62.2502 92.0231 62.4592 91.3114 62.501 90.8299C62.501 90.7462 62.501 90.6415 62.4801 90.495C62.4801 90.3485 62.4383 90.181 62.3547 90.0135C62.2711 89.8461 62.1457 89.6367 61.9576 89.4274C61.7696 89.2181 61.477 89.0087 61.1217 88.7994H61.0799V88.7575Z" fill="#808080"/>
<path d="M78.3628 82.8754C78.5509 83.0219 78.6554 83.2103 78.6763 83.4406C78.6972 83.6708 78.6345 83.8802 78.4882 84.0476C78.2792 84.2988 78.0912 84.5082 77.9449 84.6966C77.7777 84.885 77.6105 85.0943 77.4015 85.3455C77.1925 85.5967 76.9626 85.827 76.7328 86.0782C76.0849 86.769 75.5207 87.2714 75.0191 87.5854C74.5384 87.8994 74.0996 88.0669 73.7025 88.0669C73.5562 88.0669 73.4308 88.0669 73.3681 88.0459C73.2218 88.0041 73.0338 87.8994 72.8039 87.7319C72.574 87.5645 72.4277 87.2295 72.365 86.7271C72.3232 86.5597 72.3023 86.3922 72.3023 86.2038C72.3023 86.0363 72.3023 85.8479 72.3023 85.6595C71.9679 85.9735 71.6754 86.2457 71.4455 86.4341C71.2156 86.6434 71.0066 86.8318 70.7976 86.9783C70.6096 87.1458 70.4006 87.2923 70.2125 87.4179C70.0244 87.5645 69.7945 87.711 69.5646 87.8785C69.3974 87.9831 69.1676 88.1087 68.8959 88.2134C68.6242 88.3181 68.3316 88.4018 68.0182 88.4437C67.7047 88.4855 67.4121 88.4855 67.1404 88.4227C66.8688 88.3599 66.6389 88.2343 66.4717 88.0041C66.0955 87.5017 65.9074 86.9574 65.9283 86.3713C65.9283 85.7851 66.0746 85.2199 66.3254 84.6547C66.5762 84.0895 66.9314 83.5452 67.3912 83.0219C67.851 82.4986 68.3316 82.059 68.8123 81.6403C69.3139 81.2426 69.7945 80.9286 70.2961 80.6774C70.7976 80.4471 71.2156 80.3215 71.5709 80.3215C72.1978 80.3215 72.6994 80.4262 73.0547 80.6146C73.4099 80.803 73.598 80.9286 73.6398 80.9704C73.6607 80.9914 73.6607 81.0123 73.6607 81.0123C73.6607 81.0123 73.6607 81.0332 73.6816 81.0542C73.9533 80.6146 74.225 80.3215 74.4966 80.175C74.9564 79.9656 75.3535 80.0284 75.667 80.3424C75.8759 80.5936 75.9595 80.8448 75.9386 81.1379C75.9177 81.3263 75.855 81.5356 75.7296 81.7868C75.6043 82.038 75.3535 82.3939 74.9564 82.8544L74.434 83.4615C74.4131 83.4615 74.4131 83.4615 74.4131 83.4824C74.2668 83.9639 74.1414 84.4454 74.0578 84.9059C73.9742 85.3665 73.9533 85.7851 73.9951 86.1619C74.1414 86.0782 74.3504 85.9107 74.6429 85.6804C74.9146 85.4502 75.2699 85.1152 75.7087 84.6338C76.1267 84.1942 76.4611 83.8174 76.7537 83.4615C77.0253 83.1056 77.1925 82.9382 77.1925 82.9382C77.3388 82.7498 77.5269 82.6451 77.7568 82.6242C77.9867 82.6032 78.1748 82.7079 78.3628 82.8754ZM71.6963 83.9011C71.947 83.6499 72.1978 83.3987 72.3859 83.2103C72.5949 83.001 72.783 82.8126 72.9502 82.6242C72.9711 82.5823 72.9711 82.5614 72.9711 82.5614C72.9711 82.5614 72.9711 82.5195 72.992 82.4986C72.783 82.4986 72.6158 82.4148 72.4695 82.2683L72.4904 82.2892C72.4695 82.2683 72.365 82.2264 72.1978 82.1427C72.0306 82.059 71.759 82.038 71.4246 82.1008C71.0902 82.1636 70.6722 82.3311 70.1707 82.6242C69.6691 82.9172 69.084 83.4615 68.4361 84.2151C68.1644 84.4872 67.9555 84.8222 67.8092 85.199C67.642 85.5758 67.5584 85.8898 67.5584 86.1828C67.5584 86.455 67.6211 86.6643 67.7674 86.7481C67.9137 86.8527 68.1854 86.769 68.5824 86.5178C68.8332 86.3294 69.084 86.1619 69.3139 85.9945C69.5437 85.827 69.7736 85.6386 70.0035 85.4711C70.2334 85.2827 70.4842 85.0734 70.7558 84.8222C71.0275 84.55 71.341 84.257 71.6963 83.9011Z" fill="#808080"/>
<path d="M75.1654 101.066C74.6847 101.066 74.2668 100.941 73.9533 100.711C73.6189 100.459 73.4099 100.124 73.3263 99.7058C73.2427 99.308 73.2427 98.8893 73.3681 98.4497C73.4935 98.0101 73.6607 97.5705 73.8697 97.1519C74.0787 96.7123 74.3085 96.3355 74.5593 95.9796C74.8101 95.6237 74.9982 95.3307 75.1654 95.1004C75.4789 94.6817 75.8132 94.3049 76.1685 93.9281C76.5238 93.5513 76.879 93.2164 77.2552 92.8815C78.0911 92.1488 78.9271 91.6255 79.7421 91.2905C80.1601 91.1021 80.5989 90.9765 81.0796 90.9347C81.5185 89.9089 81.9155 88.925 82.2708 87.983C82.6261 87.041 82.9396 86.2037 83.2112 85.492L78.9898 87.8365C78.8435 87.9202 78.6763 87.9621 78.4882 87.9412C78.3001 87.9202 78.1329 87.8365 78.0076 87.7109C77.8613 87.5644 77.7777 87.3969 77.7568 87.2085C77.7359 87.0201 77.7777 86.8526 77.8613 86.7061C78.0494 86.3712 78.2165 86.0781 78.3419 85.806C78.4882 85.5548 78.6554 85.2408 78.8226 84.8849C79.0107 84.529 79.1988 84.1732 79.3868 83.7964C79.6585 83.2102 79.8884 82.7288 80.0556 82.331C80.2228 81.9333 80.3482 81.5984 80.4527 81.3262C80.2228 81.5565 79.9511 81.8914 79.6167 82.331C79.3033 82.7706 79.0316 83.1474 78.7808 83.4824C78.5509 83.8173 78.4255 84.0057 78.4255 84.0057C78.3001 84.215 78.112 84.3406 77.9031 84.3825C77.6941 84.4244 77.4851 84.3825 77.2761 84.2569C77.0671 84.1313 76.9417 83.9429 76.8999 83.7336C76.8581 83.5033 76.8999 83.294 77.0253 83.0846C77.0462 83.0637 77.1716 82.8753 77.4224 82.4776C77.6732 82.1008 77.9867 81.6612 78.3628 81.1797C78.7181 80.7192 79.0316 80.3424 79.3242 80.0493C79.5958 79.7562 79.8466 79.5259 80.0556 79.3794C80.2646 79.2119 80.4527 79.1073 80.599 79.0445C80.7661 78.9817 80.9124 78.9398 81.0378 78.9189C81.414 78.877 81.7275 78.9817 81.9991 79.2329C82.1454 79.3794 82.2499 79.5469 82.3126 79.7144C82.3753 79.8818 82.3962 80.0912 82.3962 80.2796C82.3962 80.4889 82.3544 80.6982 82.3126 80.9076C82.2708 81.1169 82.2081 81.3262 82.1245 81.5356C81.9364 82.1845 81.5812 83.0428 81.0587 84.1104C80.9751 84.2569 80.9124 84.4034 80.8497 84.55C80.787 84.6965 80.7243 84.843 80.6407 84.9896L84.298 82.9381C84.4442 82.8544 84.6114 82.8125 84.7786 82.8334C84.9458 82.8544 85.0921 82.9172 85.2175 83.0218C85.531 83.273 85.6354 83.5661 85.4892 83.9429C85.2175 84.7384 84.9458 85.492 84.7159 86.1618C84.486 86.8317 84.1935 87.6062 83.8591 88.4645C83.5247 89.3228 83.1694 90.2229 82.7724 91.1649C83.3993 91.4371 83.9218 91.8767 84.3398 92.5465C84.4651 92.7349 84.5069 92.9443 84.4651 93.1536C84.4233 93.3839 84.298 93.5513 84.089 93.6769C83.9009 93.8025 83.6919 93.8444 83.4829 93.8025C83.253 93.7607 83.0859 93.6351 82.9605 93.4257C82.8769 93.342 82.7933 93.2164 82.6679 93.0699C82.5425 92.9233 82.3544 92.7977 82.1036 92.714C81.0796 94.9329 80.0974 96.7332 79.1361 98.1148C77.7359 100.103 76.4193 101.087 75.1654 101.087V101.066ZM75.1654 99.3708C75.249 99.3708 75.3744 99.3499 75.5415 99.2871C75.7087 99.2243 75.8968 99.1196 76.1058 98.9731C76.3357 98.8056 76.5865 98.5963 76.8581 98.3032C77.1298 98.0101 77.4433 97.6333 77.7777 97.1309C78.1538 96.5867 78.53 95.9796 78.9271 95.2888C79.3242 94.598 79.7212 93.8025 80.1392 92.9233C80.0765 92.9652 80.0138 93.0071 79.9511 93.028C79.8884 93.0699 79.8257 93.1117 79.7421 93.1327C79.1152 93.5095 78.4673 94.0119 77.8195 94.6189C77.1716 95.226 76.5865 95.9168 76.064 96.6285C75.8341 96.9635 75.646 97.2984 75.458 97.6124C75.2908 97.9264 75.1445 98.2195 75.0609 98.5126C74.9773 98.7638 74.9146 98.9731 74.9146 99.0987C74.9146 99.2243 74.9146 99.308 74.9146 99.3499H75.1654V99.3708Z" fill="#808080"/>
<path d="M95.7084 89.4275C95.3531 89.4275 95.0397 89.3228 94.7471 89.1135C94.5381 88.9669 94.3709 88.7576 94.2455 88.5064C94.1201 88.2552 94.0157 87.8993 93.9739 87.4806C93.9112 87.062 93.8903 86.5386 93.9112 85.9316C93.9321 85.3245 93.9739 84.5918 94.0574 83.7545C94.141 82.98 94.2873 82.1217 94.4963 81.2216C94.7262 80.3214 94.9979 79.4004 95.3113 78.4793C95.6248 77.5582 95.9801 76.6371 96.3772 75.737C96.7742 74.8369 97.1713 73.9786 97.5893 73.1622C98.0072 72.3667 98.4043 71.6341 98.8014 70.9851C99.1984 70.3362 99.5746 69.7919 99.909 69.3942C100.348 68.8918 100.724 68.515 101.058 68.2638C101.414 68.0126 101.727 67.8661 101.978 67.887C102.229 67.887 102.438 67.9498 102.584 68.0335C102.981 68.2847 103.19 68.6406 103.211 69.1221C103.232 69.6035 103.211 70.085 103.106 70.5455C103.023 71.0898 102.856 71.7178 102.647 72.4295C102.438 73.1413 102.166 73.9577 101.811 74.8787C101.309 76.2394 100.745 77.4117 100.139 78.3746C99.5328 79.3376 98.9268 80.154 98.3625 80.8029C97.7982 81.4518 97.2758 81.9542 96.816 82.3101C96.3563 82.666 96.0219 82.9172 95.8129 83.0428C95.7711 83.1893 95.7502 83.3358 95.7502 83.4614C95.7502 83.587 95.7293 83.7336 95.7084 83.8801C95.7084 83.9638 95.7084 84.0057 95.6875 84.0476C95.7711 83.8382 95.9174 83.6498 96.0846 83.4824C96.2518 83.3149 96.4817 83.1684 96.7742 83.0428C97.1504 82.8962 97.443 82.8544 97.6938 82.9381C97.9236 83.0218 98.0908 83.1056 98.2162 83.1893C98.4461 83.3568 98.5924 83.587 98.6969 83.8382C98.7805 84.1104 98.8432 84.4034 98.8641 84.6965C99.5119 84.4872 100.118 84.2569 100.64 83.9638C101.163 83.6917 101.706 83.3777 102.25 83.0637C102.459 82.959 102.668 82.9381 102.897 83.0218C103.127 83.1056 103.295 83.2521 103.399 83.4614C103.483 83.6708 103.503 83.8801 103.42 84.1104C103.336 84.3406 103.211 84.4872 103.002 84.5918C102.354 84.9477 101.623 85.3245 100.829 85.7013C100.034 86.0781 99.3029 86.3502 98.6342 86.4758C98.4879 87.0201 98.258 87.5644 97.9445 88.1087C97.6311 88.6529 97.234 89.0297 96.7324 89.2391C96.6279 89.2809 96.4608 89.3228 96.2936 89.3856C96.1055 89.4065 95.9174 89.4275 95.7084 89.4275ZM95.6457 84.9477C95.6039 85.3454 95.583 85.6804 95.583 85.9944C95.583 86.3084 95.583 86.5805 95.6039 86.8317C95.6248 87.1038 95.6457 87.3132 95.6666 87.4597C95.6875 87.6062 95.7293 87.69 95.7711 87.7528C95.8547 87.7528 95.9592 87.7109 96.1264 87.6481C96.21 87.6062 96.2936 87.5016 96.4399 87.3341C96.5652 87.1666 96.7115 86.8945 96.8578 86.5177C96.8787 86.4758 96.8996 86.4549 96.8996 86.413C96.8996 86.3921 96.9205 86.3502 96.9414 86.3084C96.2518 86.0572 95.8129 85.6176 95.6457 84.9896V84.9477ZM101.497 70.085C101.455 70.1269 101.414 70.1687 101.351 70.2315C101.288 70.2943 101.246 70.3571 101.184 70.4199C100.724 71.0061 100.181 71.8225 99.5955 72.911C99.0104 73.9786 98.4461 75.1299 97.9027 76.365C97.5893 77.0767 97.3176 77.7676 97.0668 78.4584C96.8369 79.1492 96.607 79.7981 96.419 80.4052C96.4817 80.3633 96.5235 80.3214 96.5861 80.2586C96.6488 80.1958 96.6906 80.154 96.7533 80.0912C97.234 79.5678 97.7982 78.8352 98.4461 77.8932C99.0939 76.9512 99.6791 75.7579 100.222 74.2926C100.661 73.1622 100.954 72.283 101.142 71.6131C101.33 70.9433 101.455 70.4409 101.497 70.085Z" fill="#808080"/>
<path d="M103.044 89.7415C102.521 89.6997 102.103 89.5322 101.811 89.2391C101.372 88.7995 101.142 88.1506 101.163 87.2295C101.184 86.3294 101.435 85.1153 101.936 83.6081C102.208 82.7707 102.584 82.0799 103.044 81.5566C103.504 81.0332 103.922 80.6146 104.319 80.3424C104.799 79.9866 105.301 79.7354 105.823 79.5679C106.346 79.4004 106.805 79.3376 107.244 79.3795C107.683 79.4423 108.018 79.5888 108.289 79.861C108.561 80.1331 108.707 80.4471 108.749 80.8448C108.812 81.4728 108.456 82.1636 107.683 82.8963C107.412 83.1685 107.119 83.4196 106.764 83.6708C106.408 83.943 106.032 84.2151 105.593 84.5082C105.071 84.885 104.569 85.199 104.089 85.4921C103.608 85.7642 103.253 85.9945 102.981 86.141C102.918 86.4131 102.877 86.7062 102.835 86.9783C102.793 87.2505 102.772 87.4807 102.814 87.6691C102.835 87.8575 102.939 87.9831 103.086 88.0669C103.232 88.1506 103.483 88.1087 103.838 87.9831C104.298 87.8157 104.841 87.5017 105.468 87.0621C106.074 86.6225 106.68 86.141 107.286 85.6386C107.892 85.1362 108.436 84.6338 108.958 84.1523C109.48 83.6709 109.878 83.2731 110.149 83.001C110.295 82.8335 110.484 82.7498 110.713 82.7288C110.943 82.7288 111.152 82.7916 111.32 82.9591C111.487 83.1056 111.57 83.2941 111.57 83.5243C111.57 83.7546 111.487 83.9639 111.34 84.1314C111.299 84.1733 111.069 84.4035 110.609 84.8641C110.17 85.3037 109.606 85.827 108.937 86.4341C107.098 88.0669 105.593 89.0926 104.423 89.5113C103.942 89.6787 103.504 89.7625 103.127 89.7625H103.044V89.7415ZM106.952 81.0123C106.868 81.0123 106.743 81.0123 106.617 81.0332C106.492 81.0542 106.346 81.096 106.199 81.1379C105.761 81.3054 105.322 81.5984 104.862 82.0171C104.402 82.4358 104.005 83.001 103.713 83.6918C103.838 83.608 103.963 83.5034 104.11 83.4197C104.235 83.3359 104.381 83.2522 104.528 83.1475C105.468 82.5195 106.095 82.0171 106.429 81.6822C106.764 81.3263 106.973 81.117 107.035 80.9914H106.952V81.0123Z" fill="#808080"/>
<path d="M111.779 88.9878C111.716 88.9878 111.633 88.9669 111.528 88.925C111.131 88.8413 110.922 88.5691 110.88 88.1505C110.838 87.8783 110.901 87.5643 111.068 87.2085C111.236 86.8526 111.507 86.3921 111.883 85.785C112.092 85.471 112.28 85.1361 112.469 84.7593C112.657 84.4034 112.824 84.0475 112.97 83.7335C113.095 83.4405 113.179 83.2102 113.2 83.0427C113.221 82.8753 113.242 82.7706 113.242 82.6869C113.158 82.7287 113.033 82.7915 112.866 82.8753C112.698 82.959 112.489 83.1055 112.218 83.3149C111.967 83.5242 111.779 83.7126 111.612 83.8591C111.445 84.0266 111.34 84.0894 111.34 84.0894C111.194 84.2569 110.985 84.3615 110.734 84.4034C110.462 84.4453 110.253 84.3825 110.086 84.2359C109.919 84.0685 109.835 83.8801 109.814 83.6707C109.814 83.4614 109.877 83.273 110.023 83.1055C110.044 83.1055 110.17 82.9799 110.421 82.7078C110.671 82.4566 110.943 82.1845 111.256 81.9542C112.218 81.2215 113.012 80.9075 113.702 81.0331C114.203 81.1168 114.579 81.4308 114.83 81.9542C114.914 82.1845 114.976 82.3938 114.976 82.6031C115.039 82.5194 115.102 82.4566 115.164 82.3729C115.227 82.2891 115.29 82.2263 115.353 82.1426C116 81.368 116.565 80.8447 117.024 80.5516C117.484 80.2586 117.902 80.1539 118.299 80.2586C118.445 80.3004 118.613 80.3632 118.801 80.4679C118.989 80.5726 119.156 80.761 119.302 81.0122C119.449 81.2843 119.574 81.6193 119.658 82.0589C119.762 82.6241 119.825 83.3567 119.825 84.2359C120.076 83.8591 120.347 83.5242 120.598 83.2102C120.849 82.8962 121.079 82.645 121.288 82.4147C121.977 81.682 122.583 81.3262 123.127 81.3471C123.44 81.389 123.712 81.5146 123.942 81.7658C124.193 82.0798 124.339 82.5194 124.36 83.0637C124.381 83.6079 124.36 84.3406 124.297 85.2407C124.234 85.785 124.213 86.2874 124.213 86.727V86.8945C124.36 86.7479 124.569 86.5386 124.819 86.2665C125.07 85.9943 125.384 85.6175 125.739 85.1361C126.136 84.6337 126.47 84.1731 126.763 83.7545C127.056 83.3358 127.202 83.1265 127.202 83.1055C127.327 82.9171 127.515 82.8125 127.724 82.7497C127.933 82.7078 128.142 82.7497 128.351 82.8753C128.56 83.0009 128.686 83.1893 128.727 83.3986C128.769 83.6289 128.727 83.8382 128.602 84.0057C128.602 84.0266 128.56 84.1103 128.456 84.2359C128.351 84.3825 128.226 84.5499 128.08 84.7802C127.933 85.0105 127.745 85.2617 127.557 85.5338C127.348 85.8059 127.139 86.099 126.909 86.3711C126.638 86.727 126.366 87.041 126.136 87.3131C125.885 87.5853 125.676 87.8155 125.467 88.0249C125.258 88.2342 125.028 88.4226 124.757 88.5901C124.485 88.7575 124.193 88.8622 123.879 88.8622C123.837 88.8622 123.795 88.8622 123.775 88.8413C123.733 88.8413 123.691 88.8203 123.67 88.8203C123.545 88.7785 123.377 88.7157 123.21 88.611C123.043 88.5063 122.897 88.297 122.771 87.983C122.688 87.7527 122.625 87.4597 122.604 87.0829C122.583 86.7898 122.583 86.4549 122.604 86.1199C122.625 85.7641 122.646 85.4291 122.688 85.0733C122.709 84.8221 122.73 84.5499 122.751 84.2778C122.771 84.0057 122.771 83.7545 122.771 83.5451V83.3149C122.604 83.4614 122.374 83.7126 122.082 84.0475C121.789 84.4034 121.434 84.8639 120.995 85.471C120.786 85.7641 120.598 86.0571 120.41 86.3502C120.222 86.6433 120.055 86.8945 119.929 87.1247C119.783 87.355 119.616 87.6062 119.449 87.8783C119.365 88.0458 119.219 88.1714 119.031 88.2342C118.843 88.3179 118.654 88.3179 118.445 88.2342C118.257 88.1505 118.111 88.0458 118.007 87.8783C117.902 87.7109 117.881 87.5225 117.902 87.3131C117.944 87.0201 117.965 86.7479 118.007 86.4967C118.028 86.2455 118.069 85.9734 118.111 85.6594C118.153 85.3454 118.174 85.0105 118.195 84.6755C118.236 83.7754 118.216 83.1265 118.153 82.7287C118.09 82.331 118.027 82.0588 117.965 81.8914C117.881 81.9751 117.693 82.1216 117.463 82.331C117.212 82.5613 116.899 82.9171 116.481 83.3986C116.105 83.8801 115.708 84.4034 115.311 84.9477C114.893 85.4919 114.537 85.9943 114.182 86.4967C113.973 86.8107 113.785 87.1038 113.597 87.3341C113.409 87.5853 113.242 87.7946 113.095 88.0039C113.012 88.1086 112.928 88.2133 112.866 88.2761C112.803 88.3598 112.74 88.4226 112.678 88.5063C112.615 88.5482 112.531 88.611 112.406 88.7366C112.155 88.925 111.988 88.9878 111.779 88.9878Z" fill="#808080"/>
<path d="M131.235 88.2971C131.235 88.004 131.319 87.7738 131.507 87.6272C131.674 87.4807 131.883 87.397 132.092 87.397C132.301 87.397 132.51 87.4598 132.698 87.5854C132.886 87.7319 132.97 87.9412 132.97 88.2343C132.97 88.5064 132.886 88.7367 132.698 88.8832C132.531 89.0298 132.322 89.1135 132.113 89.1135C131.904 89.1135 131.695 89.0507 131.507 88.9251C131.34 88.7995 131.235 88.5902 131.235 88.2971Z" fill="#808080"/>
</svg>
