<svg width="164" height="64" viewBox="0 0 164 64" fill="none" xmlns="http://www.w3.org/2000/svg">
<path d="M97.2765 26.7706C96.3658 28.0986 90.7166 36.2075 89.5497 36.377C88.639 36.5465 88.9947 33.2408 90.062 29.37C90.3181 28.4659 91.0296 25.1319 91.243 24.256C91.6842 22.0805 89.322 20.6537 87.088 20.5406C86.9741 20.7102 86.718 21.4306 86.3907 22.476C85.7504 21.3883 84.427 20.4418 82.7194 20.2581C78.7635 19.806 72.1894 23.2954 69.7845 32.1672C68.2904 37.7614 71.2502 43.1156 76.2733 41.7735C79.2616 40.9824 81.951 36.7726 83.9289 32.9724C83.3028 37.1822 83.3455 40.9259 85.3092 41.2932C90.8731 42.3386 96.6931 32.3367 97.6038 28.4235C97.9168 27.1238 97.8884 26.6859 97.2765 26.7706ZM84.1282 26.8413C82.3494 31.263 78.237 37.6767 76.0741 36.6454C72.289 34.8513 77.9809 22.4337 81.8087 22.1087C85.1669 21.8262 84.6831 25.4427 84.1282 26.8413Z" fill="white"/>
<path d="M72.5165 26.5729C72.1323 28.3812 65.5439 36.4053 64.3486 36.5889C63.4236 36.7585 63.9786 33.6082 64.3913 31.7575C64.6474 30.8251 65.3874 27.4064 65.6008 26.5023C66.0562 24.2702 63.6371 22.801 61.3319 22.688C60.6773 23.7334 55.3269 40.7423 59.98 41.604C65.6862 42.6777 72.0469 32.478 72.9718 28.4659C73.3276 27.1662 73.1426 26.4882 72.5165 26.5729Z" fill="white"/>
<path d="M60.0797 26.6435C59.667 28.4235 54.217 36.8008 52.9363 36.928C51.9402 37.041 52.296 33.6788 53.5482 29.808C55.4265 23.9453 54.9712 20.8515 51.6556 19.8202C48.4824 18.8454 44.2419 19.9615 41.8086 23.027C42.0363 20.9786 39.8449 20.47 37.3832 20.2157C37.1555 20.5548 36.8424 22.9705 35.8321 25.923C34.708 29.1864 32.9008 35.6283 32.9008 35.6283C32.417 38.708 34.8503 42.2821 39.7453 42.5505C38.4362 41.1237 38.3366 39.2165 38.735 37.0692C39.5603 34.0037 41.3248 28.7343 41.8513 27.8302C43.9858 24.1148 47.7851 21.6002 48.9662 21.7697C52.0541 22.2642 41.7375 40.2619 48.2547 41.7312C54.3593 43.1156 59.5674 32.5204 60.592 28.5507C60.9335 27.2792 60.7485 26.587 60.0797 26.6435Z" fill="white"/>
<path d="M114.737 22.7163C114.409 21.459 112.417 20.6114 110.71 20.7526C110.681 21.233 110.681 21.685 110.539 22.2642C109.913 21.233 108.746 20.3571 107.038 20.2299C103.111 19.9333 96.6932 23.6063 94.6299 32.6052C93.3492 38.2842 96.0813 42.9885 101.418 42.0844C104.847 41.4769 107.849 36.0239 109.642 31.7011C109.016 35.7131 108.106 39.9512 107.01 43.2993C106.028 46.379 104.818 48.8653 103.452 50.6877L108.888 51.5777C113.556 41.8725 115.989 27.5053 114.737 22.7163ZM108.76 26.686C107.152 31.1925 103.31 37.7615 101.133 36.8009C97.3193 35.1057 102.513 22.4337 106.298 21.9958C109.614 21.6003 109.272 25.2591 108.76 26.686Z" fill="white"/>
<path d="M113.74 46.5909C112.089 45.602 108.475 44.2034 104.107 43.822C93.918 42.9179 81.1255 46.1388 81.8939 55.1801C82.2638 59.4465 86.547 62.3001 91.3424 62.9641C99.2827 64.0801 106.583 56.7341 110.055 49.3598C110.923 49.8825 112.36 51.2952 112.146 52.5525C111.919 53.8945 115.021 51.3799 115.618 50.278C116.117 49.2891 115.747 47.8906 113.74 46.5909ZM91.2002 60.2941C88.9518 59.955 87.7423 58.2315 87.6142 56.8188C87.1589 51.5212 95.0137 46.4496 102.257 46.8452C102.954 46.8876 104.676 47.0571 105.444 47.2266C102.072 53.4425 95.9102 61.0146 91.2002 60.2941Z" fill="white"/>
<path d="M63.0112 18.7607C63.1535 17.6305 63.7226 16.345 64.4199 15.7799C65.0176 15.2855 66.6967 15.2148 67.8493 15.6386C68.9023 16.0342 68.945 17.1502 68.8027 17.8142C68.2904 20.357 66.3125 21.9534 65.1172 21.6002C62.8546 20.9363 62.9542 19.2128 63.0112 18.7607Z" fill="white"/>
<path d="M33.584 14.5509C33.4132 12.0222 30.3396 9.8466 28.632 9.94549C28.3189 9.95962 28.0628 10.341 27.9063 11.005C23.4097 26.2057 13.9042 44.3023 9.03756 44.5849C8.45414 44.6273 7.82803 44.1187 7.74265 42.932C7.47229 39.0047 9.19409 33.8766 10.8732 28.918C12.5666 23.8747 14.331 18.676 14.0465 14.6356C13.833 11.5701 12.282 9.6347 9.60675 8.99898C9.52138 8.98485 9.45023 8.97073 9.36485 8.9566C8.89527 8.85771 8.39722 8.8012 7.87072 8.78708C7.78534 8.78708 7.71419 8.77295 7.62881 8.77295C7.44383 8.77295 7.24461 8.77295 7.05962 8.78708C7.03116 8.78708 7.01693 8.78708 6.98847 8.78708C6.91733 8.78708 6.86041 8.78708 6.78926 8.78708C6.7608 8.78708 6.71811 8.8012 6.68965 8.8012C6.68965 8.8012 6.68965 8.81533 6.67542 8.81533C5.89278 8.88597 5.12437 9.05549 4.35596 9.35216C0.286242 10.9203 -0.226031 15.9071 0.44277 17.7012C0.627757 18.1957 0.869663 18.1109 0.955042 18.0685C1.06888 18.0261 1.19695 17.8849 1.36771 17.673C1.83729 17.1361 2.61993 16.2179 4.81132 15.3844C5.16706 15.2431 5.53703 15.1442 5.90701 15.0595C5.90701 15.0595 6.97424 14.7345 6.98847 15.6528C6.98847 15.7093 6.98847 15.7799 6.97424 15.8506C6.96001 16.0342 6.9031 16.7547 6.87464 16.9525C6.44774 20.4136 4.86824 24.9907 3.34565 29.4407C1.52423 34.7384 -0.183341 39.7393 0.0158758 42.6495C0.343161 47.2266 4.28481 49.4587 7.85649 49.2468C14.0891 48.8653 20.7202 36.0522 20.7914 35.925L21.6025 34.3428L21.204 36.0522C21.204 36.0804 20.9337 35.925 21.2325 40.2903C21.4886 44.0057 26.4975 47.4668 28.6747 47.3396C29.315 47.2972 29.6138 47.0288 29.5712 46.5061C29.5569 46.3366 29.4573 46.153 29.3008 45.8846C28.945 45.2488 28.3332 44.1752 28.1766 41.816C27.7497 35.7979 30.0123 29.0028 31.8479 22.2501C32.8725 18.5347 33.6551 15.5963 33.584 14.5509Z" fill="white"/>
<path d="M151.392 20.6961C146.953 20.0886 140.435 23.9312 138.699 32.6052C137.618 38.0723 141.261 42.2398 146.611 41.7453C151.748 41.265 155.206 34.809 156.017 29.695C156.145 28.4801 156.344 27.1521 156.273 26.0502C156.117 23.1259 154.096 21.0634 151.392 20.6961ZM153.043 30.1188C151.805 33.7494 149.3 37.6061 146.511 36.7867C142.1 35.4871 147.835 23.2531 151.648 22.8575C153.612 22.6315 154.053 27.0815 153.043 30.1188Z" fill="white"/>
<path d="M142.969 27.4205C142.684 27.1097 142.271 27.0108 141.731 27.1097C141.361 27.1804 140.948 27.6324 140.521 28.4659C137.732 34.3569 135.327 37.4789 133.321 37.8462C132.538 37.9875 132.026 37.8039 131.77 37.3094C131.514 36.8008 131.414 36.1793 131.471 35.4447C131.528 34.6959 131.713 33.8342 132.054 32.8453C132.396 31.8564 132.723 30.9523 133.05 30.147C133.378 29.3277 133.819 28.2964 134.36 27.0532C134.9 25.81 135.313 24.8635 135.569 24.242C135.953 23.3096 135.996 22.5608 135.697 21.9534C135.413 21.3883 134.957 20.9786 134.345 20.7385C133.733 20.4983 133.05 20.4418 132.31 20.5689C131.784 20.6678 130.646 21.0634 128.938 21.7556C127.23 22.4478 124.754 22.8858 124.157 23.0553C124.199 22.3348 124.071 21.685 123.787 21.1199C123.232 20.018 122.264 19.5942 120.87 19.8626C119.518 20.1169 118.55 20.6961 117.953 21.6285C117.369 22.5608 117.312 23.4932 117.782 24.4397C118.081 25.0331 118.579 25.4569 119.262 25.7112C119.945 25.9654 120.3 26.0785 120.699 26.0078C120.756 26.8413 117.198 37.6767 115.533 39.1742C114.95 40.0501 116.985 40.3608 117.682 39.5274C119.276 38.8493 124.057 25.7677 124.157 25.1743C125.025 24.9483 127.401 24.4539 129.692 23.5921C129.479 24.5951 128.853 26.248 127.814 28.5648C126.775 30.8816 125.992 32.9866 125.48 34.8937C124.954 36.8008 124.968 38.2983 125.494 39.3578C126.035 40.4315 126.875 41.1802 128.056 41.6323C129.223 42.0843 130.461 42.1974 131.784 41.9572C134.488 41.4628 136.722 40.0783 138.443 37.7897C140.165 35.5012 141.745 32.3791 143.168 28.4235C143.324 28.0562 143.253 27.7313 142.969 27.4205Z" fill="white"/>
<path d="M164 26.3329C164 25.4711 163.829 24.4681 163.416 24.1714C163.303 24.0867 163.175 24.0584 163.061 24.1008C162.961 24.1291 162.933 24.2138 162.79 24.5246C162.235 25.7961 160.528 29.681 154.978 29.5538C153.157 29.3278 150.538 27.4348 149.485 25.57C149.115 24.9343 148.802 24.0443 149.4 23.4651C149.457 23.4086 149.557 23.3521 149.656 23.3097L149.827 23.2391L148.376 21.3884L148.233 21.5156C146.725 22.8718 146.583 24.9343 147.849 27.1805C149.002 29.2572 150.951 30.7264 151.165 30.8818C152.061 31.5457 152.929 31.9978 153.769 32.3086C156.23 33.2268 158.279 32.8595 159.204 32.6053C163.616 31.3762 163.986 27.4913 164 26.3329Z" fill="white"/>
<path d="M39.6318 9.08369C40.3291 9.39448 41.069 9.54988 41.8659 9.54988C42.8904 9.54988 43.7158 9.30972 44.3703 8.8294C45.0249 8.34908 45.3522 7.69924 45.3522 6.894C45.3522 6.66797 45.338 6.45607 45.2953 6.27242C45.2526 6.08877 45.1814 5.90512 45.0818 5.74972C44.9822 5.59432 44.8826 5.45305 44.7972 5.32591C44.7119 5.19877 44.5696 5.08575 44.3846 4.95861C44.1996 4.84559 44.0431 4.7467 43.9577 4.67607C43.8581 4.60543 43.6873 4.52067 43.4169 4.42178C43.1608 4.32289 42.9901 4.25226 42.9047 4.224C42.8193 4.19575 42.6343 4.12511 42.3355 4.02623C42.0367 3.92734 41.8517 3.87083 41.7948 3.8567C41.4105 3.72956 41.126 3.61654 40.9267 3.53178C40.7275 3.44702 40.5425 3.30575 40.3718 3.1221C40.201 2.93845 40.1014 2.72654 40.1014 2.48638C40.1014 2.13321 40.2579 1.85067 40.5852 1.63876C40.9125 1.42686 41.3109 1.32797 41.809 1.32797C42.7197 1.32797 43.5023 1.68114 44.1427 2.41575H44.2565L45.1245 1.53988V1.41273C44.783 0.988923 44.3134 0.649875 43.73 0.39559C43.1466 0.141304 42.492 0.0141602 41.7663 0.0141602C40.7702 0.0141602 39.9733 0.25432 39.3615 0.734637C38.7496 1.21496 38.4365 1.83654 38.4365 2.58527C38.4365 2.9667 38.5077 3.30575 38.6642 3.60242C38.8207 3.89908 39.0342 4.15337 39.3188 4.36527C39.6034 4.56305 39.8737 4.73258 40.1156 4.83146C40.3575 4.94448 40.6564 5.0575 41.0121 5.18464C41.1829 5.24115 41.4105 5.31178 41.6951 5.39654C41.9655 5.48131 42.179 5.55194 42.3355 5.59432C42.492 5.6367 42.6628 5.70734 42.862 5.7921C43.0612 5.87686 43.2035 5.97575 43.3031 6.06051C43.4027 6.14527 43.4881 6.27242 43.5592 6.41369C43.6304 6.55496 43.6731 6.72448 43.6731 6.894C43.6731 7.27543 43.5023 7.5721 43.1466 7.81226C42.8051 8.05242 42.3355 8.16543 41.7378 8.16543C41.2398 8.16543 40.7417 8.03829 40.2437 7.784C39.7314 7.52972 39.3045 7.19067 38.963 6.76686H38.8207L37.9385 7.64273V7.76988C38.3796 8.33496 38.9346 8.77289 39.6318 9.08369Z" fill="white"/>
<path d="M54.7014 8.05233H49.6925V5.38233H53.6342V4.1109H49.6925V1.51153H54.6872V0.183594H48.0703V9.38026H54.7014V8.05233Z" fill="white"/>
<path d="M63.5095 8.05233H59.0983V0.183594H57.4761V9.38026H63.5095V8.05233Z" fill="white"/>
<path d="M72.4744 8.05233H67.4655V5.38233H71.3929V4.1109H67.4655V1.51153H72.4602V0.183594H65.8291V9.38026H72.4744V8.05233Z" fill="white"/>
<path d="M79.3616 9.54991C80.1869 9.54991 80.9411 9.39451 81.6241 9.06959C82.3071 8.74467 82.8763 8.30674 83.3459 7.74166V7.61451L82.3214 6.8234H82.2075C81.5103 7.69927 80.5711 8.13721 79.4043 8.13721C78.4366 8.13721 77.6255 7.82642 76.9567 7.1907C76.3022 6.55499 75.9749 5.74975 75.9749 4.78912C75.9749 3.81435 76.3022 3.00911 76.9567 2.38753C77.6113 1.75181 78.4224 1.44102 79.4043 1.44102C80.5711 1.44102 81.5103 1.87896 82.2075 2.75483H82.3214L83.3459 1.96372V1.83657C82.8763 1.27149 82.3071 0.833558 81.6241 0.508637C80.9411 0.183716 80.2011 0.0283203 79.39 0.0283203C77.967 0.0283203 76.7717 0.480384 75.7899 1.39864C74.808 2.30277 74.3242 3.44705 74.3242 4.80324C74.3242 6.15943 74.808 7.30372 75.7757 8.20785C76.7575 9.09785 77.9528 9.54991 79.3616 9.54991Z" fill="white"/>
<path d="M87.4865 0.183594H85.8643V9.38026H87.4865V0.183594Z" fill="white"/>
<path d="M95.3556 9.54984C96.8213 9.54984 98.0308 9.09778 99.0127 8.17953C99.9945 7.26127 100.478 6.13111 100.478 4.77492C100.478 3.41873 99.9945 2.28857 99.0127 1.37032C98.0308 0.466191 96.8213 0 95.3556 0C93.89 0 92.6804 0.452064 91.6986 1.37032C90.7167 2.27445 90.2329 3.41873 90.2329 4.77492C90.2329 6.13111 90.7167 7.2754 91.6986 8.17953C92.6662 9.09778 93.89 9.54984 95.3556 9.54984ZM92.8654 2.37333C93.5342 1.73762 94.3596 1.42683 95.3414 1.42683C96.3375 1.42683 97.1628 1.73762 97.8174 2.37333C98.4862 3.00905 98.8135 3.80016 98.8135 4.77492C98.8135 5.74968 98.4862 6.55492 97.8174 7.17651C97.1486 7.81222 96.3233 8.12302 95.3414 8.12302C94.3453 8.12302 93.52 7.81222 92.8654 7.17651C92.1966 6.5408 91.8693 5.73556 91.8693 4.77492C91.8836 3.80016 92.2109 3.00905 92.8654 2.37333Z" fill="white"/>
<path d="M104.804 3.00899L110.382 9.47915H111.279V0.183594H109.685V6.63963L104.121 0.183594H103.21V9.38026H104.804V3.00899Z" fill="white"/>
<path d="M115.206 9.38026L116.074 7.5155H120.728L121.581 9.38026H123.204L123.275 9.25312L118.863 0.183594H117.981L113.542 9.25312L113.627 9.38026H115.206ZM118.422 2.41566L120.201 6.32883H116.615L118.422 2.41566Z" fill="white"/>
<path d="M133.079 8.10884C133.99 7.26122 134.445 6.14518 134.445 4.76074C134.445 3.39042 133.99 2.27439 133.079 1.4409C132.168 0.607404 130.959 0.183594 129.45 0.183594H125.551V9.38026H129.45C130.959 9.38026 132.168 8.95646 133.079 8.10884ZM127.188 8.05233V1.51153H129.422C130.446 1.51153 131.257 1.8082 131.869 2.40153C132.481 2.99486 132.794 3.78598 132.794 4.77486C132.794 5.76375 132.481 6.55487 131.869 7.1482C131.257 7.74153 130.446 8.0382 129.422 8.0382H127.188V8.05233Z" fill="white"/>
<path d="M141.674 9.54984C143.139 9.54984 144.349 9.09778 145.331 8.17953C146.312 7.26127 146.796 6.13111 146.796 4.77492C146.796 3.41873 146.312 2.28857 145.331 1.37032C144.349 0.466191 143.139 0 141.674 0C140.208 0 138.998 0.452064 138.016 1.37032C137.035 2.27445 136.551 3.41873 136.551 4.77492C136.551 6.13111 137.035 7.2754 138.016 8.17953C138.998 9.09778 140.222 9.54984 141.674 9.54984ZM139.198 2.37333C139.866 1.73762 140.692 1.42683 141.674 1.42683C142.655 1.42683 143.495 1.73762 144.149 2.37333C144.818 3.00905 145.146 3.80016 145.146 4.77492C145.146 5.74968 144.818 6.55492 144.149 7.17651C143.481 7.81222 142.655 8.12302 141.674 8.12302C140.692 8.12302 139.852 7.81222 139.198 7.17651C138.529 6.5408 138.201 5.73556 138.201 4.77492C138.201 3.80016 138.529 3.00905 139.198 2.37333Z" fill="white"/>
<path d="M150.325 9.08369C151.022 9.39448 151.762 9.54988 152.559 9.54988C153.584 9.54988 154.409 9.30972 155.064 8.8294C155.718 8.34908 156.046 7.69924 156.046 6.894C156.046 6.66797 156.031 6.45607 155.989 6.27242C155.946 6.08877 155.875 5.90512 155.775 5.74972C155.676 5.59432 155.576 5.45305 155.491 5.32591C155.405 5.19877 155.263 5.08575 155.078 4.95861C154.893 4.84559 154.736 4.7467 154.651 4.67607C154.551 4.60543 154.381 4.52067 154.11 4.42178C153.854 4.32289 153.683 4.25226 153.598 4.224C153.513 4.19575 153.328 4.12511 153.029 4.02623C152.73 3.92734 152.545 3.87083 152.488 3.8567C152.104 3.72956 151.819 3.61654 151.62 3.53178C151.421 3.44702 151.236 3.30575 151.065 3.1221C150.894 2.93845 150.795 2.72654 150.795 2.48638C150.795 2.13321 150.951 1.85067 151.279 1.63876C151.592 1.42686 152.004 1.32797 152.502 1.32797C153.413 1.32797 154.196 1.68114 154.836 2.41575H154.95L155.818 1.53988V1.41273C155.476 0.988923 155.007 0.649875 154.423 0.39559C153.84 0.141304 153.185 0.0141602 152.46 0.0141602C151.464 0.0141602 150.667 0.25432 150.055 0.734637C149.443 1.21496 149.13 1.83654 149.13 2.58527C149.13 2.9667 149.201 3.30575 149.358 3.60242C149.514 3.89908 149.728 4.15337 150.012 4.36527C150.297 4.56305 150.567 4.73258 150.809 4.83146C151.051 4.94448 151.35 5.0575 151.705 5.18464C151.876 5.24115 152.104 5.31178 152.389 5.39654C152.659 5.48131 152.872 5.55194 153.029 5.59432C153.185 5.6367 153.356 5.70734 153.555 5.7921C153.755 5.87686 153.897 5.97575 153.996 6.06051C154.096 6.14527 154.181 6.27242 154.253 6.41369C154.324 6.55496 154.366 6.72448 154.366 6.894C154.366 7.27543 154.196 7.5721 153.84 7.81226C153.498 8.05242 153.029 8.16543 152.431 8.16543C151.933 8.16543 151.435 8.03829 150.937 7.784C150.425 7.52972 149.998 7.19067 149.656 6.76686H149.514L148.632 7.64273V7.76988C149.087 8.33496 149.642 8.77289 150.325 9.08369Z" fill="white"/>
</svg>
