<svg width="20" height="15" viewBox="0 0 20 15" fill="none" xmlns="http://www.w3.org/2000/svg">
<path d="M6.66358 5.74247C6.96734 4.81074 7.48824 3.93468 8.22689 3.19382C10.7356 0.676989 14.8046 0.676989 17.3127 3.19382C19.8221 5.71066 19.8221 9.79119 17.3127 12.3074C14.8034 14.8242 10.7356 14.8242 8.22689 12.3074C7.42114 11.4993 6.87402 10.5296 6.58612 9.50304" stroke="#222" stroke-width="1.5" stroke-miterlimit="10"/>
<path d="M6.37935 8.41286C6.32567 7.89041 6.33604 7.36245 6.40924 6.84183" stroke="#222" stroke-width="1.5" stroke-miterlimit="10"/>
<path d="M8.44157 9.46144H3.75836" stroke="#222" stroke-width="1.5" stroke-linecap="round" stroke-linejoin="round"/>
<path d="M5.92739 11.2234H4.2915" stroke="#222" stroke-width="1.5" stroke-linecap="round" stroke-linejoin="round"/>
<path d="M5.70412 4.27605H2.66473" stroke="#222" stroke-width="1.5" stroke-linecap="round" stroke-linejoin="round"/>
<path d="M8.1049 6.82164H5.09113" stroke="#222" stroke-width="1.5" stroke-linecap="round" stroke-linejoin="round"/>
<path d="M3.07157 11.2234H1.91937" stroke="#222" stroke-width="1.5" stroke-linecap="round" stroke-linejoin="round"/>
<path d="M3.87119 6.82164H2.71838" stroke="#222" stroke-width="1.5" stroke-linecap="round" stroke-linejoin="round"/>
<path d="M1.49851 6.82164H0.804993" stroke="#222" stroke-width="1.5" stroke-linecap="round" stroke-linejoin="round"/>
<path d="M12.7661 1.50165V3.09593" stroke="#222" stroke-width="1.5" stroke-linecap="round" stroke-linejoin="round"/>
<path d="M12.7661 12.3973V13.991" stroke="#222" stroke-width="1.5" stroke-linecap="round" stroke-linejoin="round"/>
<path d="M18.9584 7.74663H17.3688" stroke="#222" stroke-width="1.5" stroke-linecap="round" stroke-linejoin="round"/>
<path d="M16.0922 5.04321L12.7814 8.3633L10.6227 6.31692" stroke="#222" stroke-width="1.5" stroke-miterlimit="10"/>
</svg>
