<svg width="27" height="27" viewBox="0 0 27 27" fill="none" xmlns="http://www.w3.org/2000/svg">
<path fill-rule="evenodd" clip-rule="evenodd" d="M13.5 16.875C16.7619 16.875 19.4062 14.2307 19.4062 10.9688C19.4062 7.70682 16.7619 5.0625 13.5 5.0625C10.2381 5.0625 7.59375 7.70682 7.59375 10.9688C7.59375 14.2307 10.2381 16.875 13.5 16.875ZM26.1562 13.5C26.1562 20.4899 20.4899 26.1562 13.5 26.1562C6.51015 26.1562 0.84375 20.4899 0.84375 13.5C0.84375 6.51015 6.51015 0.84375 13.5 0.84375C20.4899 0.84375 26.1562 6.51015 26.1562 13.5ZM13.5 18C15.573 18 17.2671 18.2525 18.6036 18.5884C20.9216 19.171 21.3198 21.7952 19.19 22.8798C17.7749 23.6005 15.889 24.1875 13.5 24.1875C11.111 24.1875 9.22509 23.6005 7.80996 22.8798C5.6802 21.7952 6.07839 19.171 8.39637 18.5884C9.73286 18.2525 11.427 18 13.5 18Z" fill="white"/>
</svg>
